<mxfile host="app.diagrams.net" modified="2024-06-06T14:39:00.174Z" agent="Mozilla/5.0 (Windows NT 10.0; Win64; x64) AppleWebKit/537.36 (KHTML, like Gecko) Chrome/125.0.0.0 Safari/537.36" etag="MFoF1GRqUXWnMM7EnOA0" version="24.4.15" type="onedrive">
  <diagram name="Página-1" id="o-0GQnk-C9hMvApF5cfs">
    <mxGraphModel grid="1" page="1" gridSize="10" guides="1" tooltips="1" connect="1" arrows="1" fold="1" pageScale="1" pageWidth="827" pageHeight="1169" math="0" shadow="0">
      <root>
        <mxCell id="0" />
        <mxCell id="1" parent="0" />
        <mxCell id="5rakkx5pgOcua--1wuj7-6" value="&lt;h1&gt;E^2 Diagrama de Caso de Uso&lt;/h1&gt;" style="verticalAlign=top;align=center;overflow=fill;html=1;whiteSpace=wrap;" vertex="1" parent="1">
          <mxGeometry x="-140" y="-220" width="1540" height="1450" as="geometry" />
        </mxCell>
        <mxCell id="5rakkx5pgOcua--1wuj7-7" value="Administrador" style="shape=umlActor;verticalLabelPosition=bottom;verticalAlign=top;html=1;" vertex="1" parent="1">
          <mxGeometry x="-250" y="70" width="30" height="60" as="geometry" />
        </mxCell>
        <mxCell id="5rakkx5pgOcua--1wuj7-8" value="Cadastro de Administrador" style="ellipse;whiteSpace=wrap;html=1;" vertex="1" parent="1">
          <mxGeometry x="70" y="170" width="160" height="80" as="geometry" />
        </mxCell>
        <mxCell id="5rakkx5pgOcua--1wuj7-12" value="Vendedor" style="shape=umlActor;verticalLabelPosition=bottom;verticalAlign=top;html=1;outlineConnect=0;" vertex="1" parent="1">
          <mxGeometry x="-250" y="330" width="30" height="60" as="geometry" />
        </mxCell>
        <mxCell id="5rakkx5pgOcua--1wuj7-13" value="Cliente" style="shape=umlActor;verticalLabelPosition=bottom;verticalAlign=top;html=1;outlineConnect=0;" vertex="1" parent="1">
          <mxGeometry x="1640" y="-100" width="30" height="60" as="geometry" />
        </mxCell>
        <mxCell id="5rakkx5pgOcua--1wuj7-16" value="Cadastro de Vendedor" style="ellipse;whiteSpace=wrap;html=1;" vertex="1" parent="1">
          <mxGeometry x="-10" y="465" width="150" height="80" as="geometry" />
        </mxCell>
        <mxCell id="5rakkx5pgOcua--1wuj7-17" value="Cadastro do Cliente" style="ellipse;whiteSpace=wrap;html=1;" vertex="1" parent="1">
          <mxGeometry x="1090" y="70" width="140" height="80" as="geometry" />
        </mxCell>
        <mxCell id="5rakkx5pgOcua--1wuj7-21" value="Visualização de Produtos" style="ellipse;whiteSpace=wrap;html=1;" vertex="1" parent="1">
          <mxGeometry x="1020" y="300" width="140" height="80" as="geometry" />
        </mxCell>
        <mxCell id="5rakkx5pgOcua--1wuj7-26" value="Perfil Completo de Vendedores" style="ellipse;whiteSpace=wrap;html=1;" vertex="1" parent="1">
          <mxGeometry x="290" y="650" width="160" height="80" as="geometry" />
        </mxCell>
        <mxCell id="5rakkx5pgOcua--1wuj7-38" value="Atendimento no WhatsApp" style="ellipse;whiteSpace=wrap;html=1;" vertex="1" parent="1">
          <mxGeometry x="530" y="780" width="170" height="80" as="geometry" />
        </mxCell>
        <mxCell id="5rakkx5pgOcua--1wuj7-39" value="Sistema de Avaliação do Cliente Direto com os Administradores" style="ellipse;whiteSpace=wrap;html=1;" vertex="1" parent="1">
          <mxGeometry x="510" y="380" width="170" height="80" as="geometry" />
        </mxCell>
        <mxCell id="5rakkx5pgOcua--1wuj7-40" value="Carrinho de Compras" style="ellipse;whiteSpace=wrap;html=1;" vertex="1" parent="1">
          <mxGeometry x="910" y="510" width="150" height="80" as="geometry" />
        </mxCell>
        <mxCell id="5rakkx5pgOcua--1wuj7-42" value="&amp;lt;&amp;lt;Include&amp;gt;&amp;gt;" style="edgeLabel;html=1;align=center;verticalAlign=middle;resizable=0;points=[];" connectable="0" vertex="1" parent="1">
          <mxGeometry x="1130.002705604671" y="210.00432339097722" as="geometry">
            <mxPoint x="1" y="-4" as="offset" />
          </mxGeometry>
        </mxCell>
        <mxCell id="5rakkx5pgOcua--1wuj7-44" value="&amp;lt;&amp;lt;Extend&amp;gt;&amp;gt;" style="edgeLabel;html=1;align=center;verticalAlign=middle;resizable=0;points=[];" connectable="0" vertex="1" parent="1">
          <mxGeometry x="220.0027056046714" y="870.0043233909777" as="geometry">
            <mxPoint x="596" y="-171" as="offset" />
          </mxGeometry>
        </mxCell>
        <mxCell id="5rakkx5pgOcua--1wuj7-50" value="&amp;lt;&amp;lt;Include&amp;gt;&amp;gt;" style="edgeLabel;html=1;align=center;verticalAlign=middle;resizable=0;points=[];" connectable="0" vertex="1" parent="1">
          <mxGeometry x="320.00270560467106" y="290.0043233909772" as="geometry">
            <mxPoint x="1" y="-4" as="offset" />
          </mxGeometry>
        </mxCell>
        <mxCell id="5rakkx5pgOcua--1wuj7-51" value="&amp;lt;&amp;lt;Include&amp;gt;&amp;gt;" style="edgeLabel;html=1;align=center;verticalAlign=middle;resizable=0;points=[];" connectable="0" vertex="1" parent="1">
          <mxGeometry x="410.00270560467106" y="790.0043233909772" as="geometry">
            <mxPoint x="10" y="-20" as="offset" />
          </mxGeometry>
        </mxCell>
        <mxCell id="5rakkx5pgOcua--1wuj7-36" value="&amp;lt;&amp;lt;Include&amp;gt;&amp;gt;" style="edgeLabel;html=1;align=center;verticalAlign=middle;resizable=0;points=[];" connectable="0" vertex="1" parent="1">
          <mxGeometry x="410.0027056046714" y="360.0043233909777" as="geometry">
            <mxPoint x="-244" y="200" as="offset" />
          </mxGeometry>
        </mxCell>
        <mxCell id="5rakkx5pgOcua--1wuj7-35" value="&amp;lt;&amp;lt;Extend&amp;gt;&amp;gt;" style="edgeLabel;html=1;align=center;verticalAlign=middle;resizable=0;points=[];" connectable="0" vertex="1" parent="1">
          <mxGeometry x="190.0027056046714" y="650.0043233909777" as="geometry">
            <mxPoint x="596" y="-171" as="offset" />
          </mxGeometry>
        </mxCell>
      </root>
    </mxGraphModel>
  </diagram>
</mxfile>
